<mxfile host="app.diagrams.net" agent="Mozilla/5.0 (Windows NT 10.0; Win64; x64) AppleWebKit/537.36 (KHTML, like Gecko) Chrome/134.0.0.0 Safari/537.36" version="26.1.1">
  <diagram id="Rk4uhoGR4WZIKCw4OE3t" name="Trang-1">
    <mxGraphModel dx="2044" dy="464" grid="1" gridSize="10" guides="1" tooltips="1" connect="1" arrows="1" fold="1" page="1" pageScale="1" pageWidth="1169" pageHeight="1654" math="0" shadow="0">
      <root>
        <mxCell id="0" />
        <mxCell id="1" parent="0" />
        <mxCell id="QjEfFsea5YLyxsfnzkJe-1" value="" style="ellipse;html=1;shape=startState;fillColor=#000000;strokeColor=#ff0000;" vertex="1" parent="1">
          <mxGeometry x="150" y="50" width="30" height="30" as="geometry" />
        </mxCell>
        <mxCell id="QjEfFsea5YLyxsfnzkJe-2" value="" style="edgeStyle=orthogonalEdgeStyle;html=1;verticalAlign=bottom;endArrow=open;endSize=8;strokeColor=#ff0000;rounded=0;exitX=0.5;exitY=1;exitDx=0;exitDy=0;entryX=0.5;entryY=0;entryDx=0;entryDy=0;" edge="1" source="QjEfFsea5YLyxsfnzkJe-1" parent="1" target="QjEfFsea5YLyxsfnzkJe-3">
          <mxGeometry relative="1" as="geometry">
            <mxPoint x="145" y="130" as="targetPoint" />
          </mxGeometry>
        </mxCell>
        <mxCell id="QjEfFsea5YLyxsfnzkJe-3" value="isUserStayLoggin" style="rhombus;whiteSpace=wrap;html=1;fontColor=#000000;fillColor=#ffffc0;strokeColor=#ff0000;" vertex="1" parent="1">
          <mxGeometry x="100" y="140" width="130" height="70" as="geometry" />
        </mxCell>
        <mxCell id="QjEfFsea5YLyxsfnzkJe-4" value="no" style="edgeStyle=orthogonalEdgeStyle;html=1;align=left;verticalAlign=bottom;endArrow=open;endSize=8;strokeColor=#ff0000;rounded=0;entryX=0;entryY=0.5;entryDx=0;entryDy=0;" edge="1" source="QjEfFsea5YLyxsfnzkJe-3" parent="1" target="QjEfFsea5YLyxsfnzkJe-25">
          <mxGeometry x="-1" relative="1" as="geometry">
            <mxPoint x="280" y="175" as="targetPoint" />
          </mxGeometry>
        </mxCell>
        <mxCell id="QjEfFsea5YLyxsfnzkJe-5" value="yes" style="edgeStyle=orthogonalEdgeStyle;html=1;align=left;verticalAlign=top;endArrow=open;endSize=8;strokeColor=#ff0000;rounded=0;entryX=0.5;entryY=0;entryDx=0;entryDy=0;" edge="1" source="QjEfFsea5YLyxsfnzkJe-3" parent="1" target="QjEfFsea5YLyxsfnzkJe-6">
          <mxGeometry x="-1" relative="1" as="geometry">
            <mxPoint x="165" y="260" as="targetPoint" />
          </mxGeometry>
        </mxCell>
        <mxCell id="QjEfFsea5YLyxsfnzkJe-6" value="AccountSettingView" style="rounded=1;whiteSpace=wrap;html=1;arcSize=40;fontColor=#000000;fillColor=#ffffc0;strokeColor=#ff0000;" vertex="1" parent="1">
          <mxGeometry x="105" y="270" width="120" height="40" as="geometry" />
        </mxCell>
        <mxCell id="QjEfFsea5YLyxsfnzkJe-7" value="" style="edgeStyle=orthogonalEdgeStyle;html=1;verticalAlign=bottom;endArrow=open;endSize=8;strokeColor=#ff0000;rounded=0;entryX=0.503;entryY=0.3;entryDx=0;entryDy=0;entryPerimeter=0;" edge="1" source="QjEfFsea5YLyxsfnzkJe-6" parent="1" target="QjEfFsea5YLyxsfnzkJe-8">
          <mxGeometry relative="1" as="geometry">
            <mxPoint x="165" y="360" as="targetPoint" />
          </mxGeometry>
        </mxCell>
        <mxCell id="QjEfFsea5YLyxsfnzkJe-8" value="" style="shape=line;html=1;strokeWidth=6;strokeColor=#ff0000;" vertex="1" parent="1">
          <mxGeometry x="65" y="360" width="200" height="10" as="geometry" />
        </mxCell>
        <mxCell id="QjEfFsea5YLyxsfnzkJe-9" value="" style="edgeStyle=orthogonalEdgeStyle;html=1;verticalAlign=bottom;endArrow=open;endSize=8;strokeColor=#ff0000;rounded=0;exitX=0.75;exitY=0.5;exitDx=0;exitDy=0;exitPerimeter=0;entryX=0.5;entryY=0.567;entryDx=0;entryDy=0;entryPerimeter=0;" edge="1" source="QjEfFsea5YLyxsfnzkJe-8" parent="1" target="QjEfFsea5YLyxsfnzkJe-46">
          <mxGeometry relative="1" as="geometry">
            <mxPoint x="380" y="640" as="targetPoint" />
            <mxPoint x="510" y="550" as="sourcePoint" />
            <Array as="points">
              <mxPoint x="215" y="400" />
              <mxPoint x="380" y="400" />
            </Array>
          </mxGeometry>
        </mxCell>
        <mxCell id="QjEfFsea5YLyxsfnzkJe-10" value="GoToMainMenu" style="rounded=1;whiteSpace=wrap;html=1;arcSize=40;fontColor=#000000;fillColor=#ffffc0;strokeColor=#ff0000;" vertex="1" parent="1">
          <mxGeometry x="320" y="740" width="120" height="40" as="geometry" />
        </mxCell>
        <mxCell id="QjEfFsea5YLyxsfnzkJe-12" value="" style="edgeStyle=orthogonalEdgeStyle;html=1;verticalAlign=bottom;endArrow=open;endSize=8;strokeColor=#ff0000;rounded=0;exitX=0.25;exitY=0.5;exitDx=0;exitDy=0;exitPerimeter=0;entryX=0.5;entryY=0;entryDx=0;entryDy=0;" edge="1" parent="1" source="QjEfFsea5YLyxsfnzkJe-8" target="QjEfFsea5YLyxsfnzkJe-15">
          <mxGeometry relative="1" as="geometry">
            <mxPoint x="20" y="460" as="targetPoint" />
            <mxPoint x="175" y="376" as="sourcePoint" />
          </mxGeometry>
        </mxCell>
        <mxCell id="QjEfFsea5YLyxsfnzkJe-15" value="HavingMusicFile" style="rhombus;whiteSpace=wrap;html=1;fontColor=#000000;fillColor=#ffffc0;strokeColor=#ff0000;" vertex="1" parent="1">
          <mxGeometry x="-50" y="430" width="140" height="70" as="geometry" />
        </mxCell>
        <mxCell id="QjEfFsea5YLyxsfnzkJe-16" value="no" style="edgeStyle=orthogonalEdgeStyle;html=1;align=left;verticalAlign=bottom;endArrow=open;endSize=8;strokeColor=#ff0000;rounded=0;exitX=0.5;exitY=1;exitDx=0;exitDy=0;entryX=0.5;entryY=0;entryDx=0;entryDy=0;" edge="1" source="QjEfFsea5YLyxsfnzkJe-15" parent="1" target="QjEfFsea5YLyxsfnzkJe-20">
          <mxGeometry x="-0.5021" y="10" relative="1" as="geometry">
            <mxPoint x="20" y="580" as="targetPoint" />
            <mxPoint as="offset" />
          </mxGeometry>
        </mxCell>
        <mxCell id="QjEfFsea5YLyxsfnzkJe-17" value="yes" style="edgeStyle=orthogonalEdgeStyle;html=1;align=left;verticalAlign=top;endArrow=open;endSize=8;strokeColor=#ff0000;rounded=0;exitX=0;exitY=0.5;exitDx=0;exitDy=0;entryX=0;entryY=0.5;entryDx=0;entryDy=0;" edge="1" source="QjEfFsea5YLyxsfnzkJe-15" parent="1" target="QjEfFsea5YLyxsfnzkJe-22">
          <mxGeometry x="0.3528" relative="1" as="geometry">
            <mxPoint x="-100" y="570" as="targetPoint" />
            <mxPoint as="offset" />
          </mxGeometry>
        </mxCell>
        <mxCell id="QjEfFsea5YLyxsfnzkJe-20" value="ChooseMusic" style="rounded=1;whiteSpace=wrap;html=1;arcSize=40;fontColor=#000000;fillColor=#ffffc0;strokeColor=#ff0000;" vertex="1" parent="1">
          <mxGeometry x="-40" y="560" width="120" height="40" as="geometry" />
        </mxCell>
        <mxCell id="QjEfFsea5YLyxsfnzkJe-21" value="" style="edgeStyle=orthogonalEdgeStyle;html=1;verticalAlign=bottom;endArrow=open;endSize=8;strokeColor=#ff0000;rounded=0;" edge="1" source="QjEfFsea5YLyxsfnzkJe-20" parent="1">
          <mxGeometry relative="1" as="geometry">
            <mxPoint x="20" y="710" as="targetPoint" />
          </mxGeometry>
        </mxCell>
        <mxCell id="QjEfFsea5YLyxsfnzkJe-22" value="PlayMusic" style="rounded=1;whiteSpace=wrap;html=1;arcSize=40;fontColor=#000000;fillColor=#ffffc0;strokeColor=#ff0000;" vertex="1" parent="1">
          <mxGeometry x="-40" y="710" width="120" height="40" as="geometry" />
        </mxCell>
        <mxCell id="QjEfFsea5YLyxsfnzkJe-24" value="" style="edgeStyle=orthogonalEdgeStyle;html=1;verticalAlign=bottom;endArrow=open;endSize=8;strokeColor=#ff0000;rounded=0;exitX=0.498;exitY=0.833;exitDx=0;exitDy=0;exitPerimeter=0;entryX=0.5;entryY=0;entryDx=0;entryDy=0;" edge="1" parent="1" source="QjEfFsea5YLyxsfnzkJe-8" target="QjEfFsea5YLyxsfnzkJe-35">
          <mxGeometry relative="1" as="geometry">
            <mxPoint x="310" y="440" as="targetPoint" />
            <mxPoint x="160" y="440" as="sourcePoint" />
          </mxGeometry>
        </mxCell>
        <mxCell id="QjEfFsea5YLyxsfnzkJe-25" value="Login" style="rounded=1;whiteSpace=wrap;html=1;arcSize=40;fontColor=#000000;fillColor=#ffffc0;strokeColor=#ff0000;" vertex="1" parent="1">
          <mxGeometry x="290" y="155" width="120" height="40" as="geometry" />
        </mxCell>
        <mxCell id="QjEfFsea5YLyxsfnzkJe-26" value="" style="edgeStyle=orthogonalEdgeStyle;html=1;verticalAlign=bottom;endArrow=open;endSize=8;strokeColor=#ff0000;rounded=0;exitX=1;exitY=0.5;exitDx=0;exitDy=0;entryX=0;entryY=0.5;entryDx=0;entryDy=0;" edge="1" source="QjEfFsea5YLyxsfnzkJe-25" parent="1" target="QjEfFsea5YLyxsfnzkJe-27">
          <mxGeometry relative="1" as="geometry">
            <mxPoint x="470" y="175" as="targetPoint" />
          </mxGeometry>
        </mxCell>
        <mxCell id="QjEfFsea5YLyxsfnzkJe-27" value="HavingAccount" style="rhombus;whiteSpace=wrap;html=1;fontColor=#000000;fillColor=#ffffc0;strokeColor=#ff0000;" vertex="1" parent="1">
          <mxGeometry x="480" y="142.5" width="110" height="65" as="geometry" />
        </mxCell>
        <mxCell id="QjEfFsea5YLyxsfnzkJe-28" value="no" style="edgeStyle=orthogonalEdgeStyle;html=1;align=left;verticalAlign=bottom;endArrow=open;endSize=8;strokeColor=#ff0000;rounded=0;entryX=0;entryY=0.5;entryDx=0;entryDy=0;" edge="1" source="QjEfFsea5YLyxsfnzkJe-27" parent="1" target="QjEfFsea5YLyxsfnzkJe-30">
          <mxGeometry x="-1" relative="1" as="geometry">
            <mxPoint x="660" y="175" as="targetPoint" />
          </mxGeometry>
        </mxCell>
        <mxCell id="QjEfFsea5YLyxsfnzkJe-29" value="yes" style="edgeStyle=orthogonalEdgeStyle;html=1;align=left;verticalAlign=top;endArrow=open;endSize=8;strokeColor=#ff0000;rounded=0;entryX=0.5;entryY=0;entryDx=0;entryDy=0;" edge="1" source="QjEfFsea5YLyxsfnzkJe-27" parent="1" target="QjEfFsea5YLyxsfnzkJe-32">
          <mxGeometry x="-1" relative="1" as="geometry">
            <mxPoint x="520" y="255" as="targetPoint" />
          </mxGeometry>
        </mxCell>
        <mxCell id="QjEfFsea5YLyxsfnzkJe-30" value="Regist" style="rounded=1;whiteSpace=wrap;html=1;arcSize=40;fontColor=#000000;fillColor=#ffffc0;strokeColor=#ff0000;" vertex="1" parent="1">
          <mxGeometry x="670" y="155" width="120" height="40" as="geometry" />
        </mxCell>
        <mxCell id="QjEfFsea5YLyxsfnzkJe-31" value="" style="edgeStyle=orthogonalEdgeStyle;html=1;verticalAlign=bottom;endArrow=open;endSize=8;strokeColor=#ff0000;rounded=0;exitX=0.5;exitY=0;exitDx=0;exitDy=0;entryX=0.5;entryY=0;entryDx=0;entryDy=0;" edge="1" source="QjEfFsea5YLyxsfnzkJe-30" parent="1" target="QjEfFsea5YLyxsfnzkJe-25">
          <mxGeometry relative="1" as="geometry">
            <mxPoint x="740" y="270" as="targetPoint" />
            <Array as="points">
              <mxPoint x="730" y="110" />
              <mxPoint x="350" y="110" />
            </Array>
          </mxGeometry>
        </mxCell>
        <mxCell id="QjEfFsea5YLyxsfnzkJe-32" value="ValidateLogin" style="rhombus;whiteSpace=wrap;html=1;fontColor=#000000;fillColor=#ffffc0;strokeColor=#ff0000;" vertex="1" parent="1">
          <mxGeometry x="480" y="260" width="110" height="70" as="geometry" />
        </mxCell>
        <mxCell id="QjEfFsea5YLyxsfnzkJe-33" value="false" style="edgeStyle=orthogonalEdgeStyle;html=1;align=left;verticalAlign=bottom;endArrow=open;endSize=8;strokeColor=#ff0000;rounded=0;exitX=0;exitY=0.5;exitDx=0;exitDy=0;entryX=0.5;entryY=1;entryDx=0;entryDy=0;" edge="1" source="QjEfFsea5YLyxsfnzkJe-32" parent="1" target="QjEfFsea5YLyxsfnzkJe-25">
          <mxGeometry x="-0.3913" relative="1" as="geometry">
            <mxPoint x="650" y="310" as="targetPoint" />
            <mxPoint as="offset" />
          </mxGeometry>
        </mxCell>
        <mxCell id="QjEfFsea5YLyxsfnzkJe-34" value="yes" style="edgeStyle=orthogonalEdgeStyle;html=1;align=left;verticalAlign=top;endArrow=open;endSize=8;strokeColor=#ff0000;rounded=0;entryX=0.5;entryY=0;entryDx=0;entryDy=0;" edge="1" source="QjEfFsea5YLyxsfnzkJe-32" parent="1" target="QjEfFsea5YLyxsfnzkJe-39">
          <mxGeometry x="-1" relative="1" as="geometry">
            <mxPoint x="600" y="400" as="targetPoint" />
            <Array as="points">
              <mxPoint x="535" y="390" />
              <mxPoint x="535" y="390" />
            </Array>
          </mxGeometry>
        </mxCell>
        <mxCell id="QjEfFsea5YLyxsfnzkJe-35" value="LogOut" style="rounded=1;whiteSpace=wrap;html=1;arcSize=40;fontColor=#000000;fillColor=#ffffc0;strokeColor=#ff0000;" vertex="1" parent="1">
          <mxGeometry x="105" y="445" width="120" height="40" as="geometry" />
        </mxCell>
        <mxCell id="QjEfFsea5YLyxsfnzkJe-36" value="" style="edgeStyle=orthogonalEdgeStyle;html=1;verticalAlign=bottom;endArrow=open;endSize=8;strokeColor=#ff0000;rounded=0;exitX=1;exitY=0.5;exitDx=0;exitDy=0;entryX=0.25;entryY=1;entryDx=0;entryDy=0;" edge="1" source="QjEfFsea5YLyxsfnzkJe-35" parent="1" target="QjEfFsea5YLyxsfnzkJe-25">
          <mxGeometry relative="1" as="geometry">
            <mxPoint x="310" y="540" as="targetPoint" />
          </mxGeometry>
        </mxCell>
        <mxCell id="QjEfFsea5YLyxsfnzkJe-37" value="SaveMusic" style="rounded=1;whiteSpace=wrap;html=1;arcSize=40;fontColor=#000000;fillColor=#ffffc0;strokeColor=#ff0000;" vertex="1" parent="1">
          <mxGeometry x="-40" y="800" width="120" height="40" as="geometry" />
        </mxCell>
        <mxCell id="QjEfFsea5YLyxsfnzkJe-38" value="" style="edgeStyle=orthogonalEdgeStyle;html=1;verticalAlign=bottom;endArrow=open;endSize=8;strokeColor=#ff0000;rounded=0;exitX=0.5;exitY=1;exitDx=0;exitDy=0;" edge="1" source="QjEfFsea5YLyxsfnzkJe-22" parent="1" target="QjEfFsea5YLyxsfnzkJe-37">
          <mxGeometry relative="1" as="geometry">
            <mxPoint x="20" y="800" as="targetPoint" />
          </mxGeometry>
        </mxCell>
        <mxCell id="QjEfFsea5YLyxsfnzkJe-39" value="StayLogin" style="rhombus;whiteSpace=wrap;html=1;fontColor=#000000;fillColor=#ffffc0;strokeColor=#ff0000;" vertex="1" parent="1">
          <mxGeometry x="490" y="410" width="90" height="50" as="geometry" />
        </mxCell>
        <mxCell id="QjEfFsea5YLyxsfnzkJe-40" value="no" style="edgeStyle=orthogonalEdgeStyle;html=1;align=left;verticalAlign=bottom;endArrow=open;endSize=8;strokeColor=#ff0000;rounded=0;entryX=0.75;entryY=0.5;entryDx=0;entryDy=0;entryPerimeter=0;" edge="1" source="QjEfFsea5YLyxsfnzkJe-39" parent="1" target="QjEfFsea5YLyxsfnzkJe-44">
          <mxGeometry x="-1" relative="1" as="geometry">
            <mxPoint x="650" y="580" as="targetPoint" />
            <Array as="points">
              <mxPoint x="700" y="435" />
            </Array>
          </mxGeometry>
        </mxCell>
        <mxCell id="QjEfFsea5YLyxsfnzkJe-41" value="yes" style="edgeStyle=orthogonalEdgeStyle;html=1;align=left;verticalAlign=top;endArrow=open;endSize=8;strokeColor=#ff0000;rounded=0;entryX=0.5;entryY=0;entryDx=0;entryDy=0;" edge="1" source="QjEfFsea5YLyxsfnzkJe-39" parent="1" target="QjEfFsea5YLyxsfnzkJe-42">
          <mxGeometry x="-1" relative="1" as="geometry">
            <mxPoint x="540" y="570" as="targetPoint" />
          </mxGeometry>
        </mxCell>
        <mxCell id="QjEfFsea5YLyxsfnzkJe-42" value="SaveUserInfor" style="rounded=1;whiteSpace=wrap;html=1;arcSize=40;fontColor=#000000;fillColor=#ffffc0;strokeColor=#ff0000;" vertex="1" parent="1">
          <mxGeometry x="475" y="500" width="120" height="40" as="geometry" />
        </mxCell>
        <mxCell id="QjEfFsea5YLyxsfnzkJe-43" value="" style="edgeStyle=orthogonalEdgeStyle;html=1;verticalAlign=bottom;endArrow=open;endSize=8;strokeColor=#ff0000;rounded=0;entryX=0.25;entryY=0.5;entryDx=0;entryDy=0;entryPerimeter=0;" edge="1" source="QjEfFsea5YLyxsfnzkJe-42" parent="1" target="QjEfFsea5YLyxsfnzkJe-44">
          <mxGeometry relative="1" as="geometry">
            <mxPoint x="630" y="580" as="targetPoint" />
          </mxGeometry>
        </mxCell>
        <mxCell id="QjEfFsea5YLyxsfnzkJe-44" value="" style="shape=line;html=1;strokeWidth=6;strokeColor=#ff0000;" vertex="1" parent="1">
          <mxGeometry x="550" y="600" width="200" height="10" as="geometry" />
        </mxCell>
        <mxCell id="QjEfFsea5YLyxsfnzkJe-45" value="" style="edgeStyle=orthogonalEdgeStyle;html=1;verticalAlign=bottom;endArrow=open;endSize=8;strokeColor=#ff0000;rounded=0;entryX=0.75;entryY=0.5;entryDx=0;entryDy=0;entryPerimeter=0;" edge="1" source="QjEfFsea5YLyxsfnzkJe-44" parent="1" target="QjEfFsea5YLyxsfnzkJe-46">
          <mxGeometry relative="1" as="geometry">
            <mxPoint x="460" y="670" as="targetPoint" />
            <Array as="points">
              <mxPoint x="650" y="630" />
              <mxPoint x="430" y="630" />
            </Array>
          </mxGeometry>
        </mxCell>
        <mxCell id="QjEfFsea5YLyxsfnzkJe-46" value="" style="shape=line;html=1;strokeWidth=6;strokeColor=#ff0000;" vertex="1" parent="1">
          <mxGeometry x="280" y="670" width="200" height="10" as="geometry" />
        </mxCell>
        <mxCell id="QjEfFsea5YLyxsfnzkJe-47" value="" style="edgeStyle=orthogonalEdgeStyle;html=1;verticalAlign=bottom;endArrow=open;endSize=8;strokeColor=#ff0000;rounded=0;entryX=0.5;entryY=0;entryDx=0;entryDy=0;" edge="1" source="QjEfFsea5YLyxsfnzkJe-46" parent="1" target="QjEfFsea5YLyxsfnzkJe-10">
          <mxGeometry relative="1" as="geometry">
            <mxPoint x="390" y="740" as="targetPoint" />
          </mxGeometry>
        </mxCell>
        <mxCell id="QjEfFsea5YLyxsfnzkJe-49" value="" style="shape=line;html=1;strokeWidth=6;strokeColor=#ff0000;" vertex="1" parent="1">
          <mxGeometry x="280" y="860" width="200" height="10" as="geometry" />
        </mxCell>
        <mxCell id="QjEfFsea5YLyxsfnzkJe-50" value="" style="edgeStyle=orthogonalEdgeStyle;html=1;verticalAlign=bottom;endArrow=open;endSize=8;strokeColor=#ff0000;rounded=0;exitX=0.25;exitY=0.5;exitDx=0;exitDy=0;exitPerimeter=0;entryX=0.5;entryY=0.433;entryDx=0;entryDy=0;entryPerimeter=0;" edge="1" source="QjEfFsea5YLyxsfnzkJe-49" parent="1" target="QjEfFsea5YLyxsfnzkJe-70">
          <mxGeometry relative="1" as="geometry">
            <mxPoint x="190" y="920" as="targetPoint" />
          </mxGeometry>
        </mxCell>
        <mxCell id="QjEfFsea5YLyxsfnzkJe-51" value="" style="edgeStyle=orthogonalEdgeStyle;html=1;verticalAlign=bottom;endArrow=open;endSize=8;strokeColor=#ff0000;rounded=0;exitX=0.5;exitY=1;exitDx=0;exitDy=0;entryX=0.503;entryY=0.3;entryDx=0;entryDy=0;entryPerimeter=0;" edge="1" parent="1" source="QjEfFsea5YLyxsfnzkJe-10" target="QjEfFsea5YLyxsfnzkJe-49">
          <mxGeometry relative="1" as="geometry">
            <mxPoint x="350" y="830" as="targetPoint" />
            <mxPoint x="390" y="880" as="sourcePoint" />
          </mxGeometry>
        </mxCell>
        <mxCell id="QjEfFsea5YLyxsfnzkJe-52" value="" style="edgeStyle=orthogonalEdgeStyle;html=1;verticalAlign=bottom;endArrow=open;endSize=8;strokeColor=#ff0000;rounded=0;exitX=0.75;exitY=0.5;exitDx=0;exitDy=0;exitPerimeter=0;entryX=0.5;entryY=0;entryDx=0;entryDy=0;" edge="1" parent="1" source="QjEfFsea5YLyxsfnzkJe-49" target="QjEfFsea5YLyxsfnzkJe-55">
          <mxGeometry relative="1" as="geometry">
            <mxPoint x="470" y="960" as="targetPoint" />
            <mxPoint x="400" y="890" as="sourcePoint" />
          </mxGeometry>
        </mxCell>
        <mxCell id="QjEfFsea5YLyxsfnzkJe-53" value="GoToDeckBuilderView" style="rounded=1;whiteSpace=wrap;html=1;arcSize=40;fontColor=#000000;fillColor=#ffffc0;strokeColor=#ff0000;" vertex="1" parent="1">
          <mxGeometry x="115" y="1230" width="130" height="50" as="geometry" />
        </mxCell>
        <mxCell id="QjEfFsea5YLyxsfnzkJe-55" value="GoToSharingView" style="rounded=1;whiteSpace=wrap;html=1;arcSize=40;fontColor=#000000;fillColor=#ffffc0;strokeColor=#ff0000;" vertex="1" parent="1">
          <mxGeometry x="450" y="965" width="120" height="40" as="geometry" />
        </mxCell>
        <mxCell id="QjEfFsea5YLyxsfnzkJe-56" value="" style="edgeStyle=orthogonalEdgeStyle;html=1;verticalAlign=bottom;endArrow=open;endSize=8;strokeColor=#ff0000;rounded=0;entryX=0.5;entryY=0;entryDx=0;entryDy=0;" edge="1" source="QjEfFsea5YLyxsfnzkJe-55" parent="1" target="QjEfFsea5YLyxsfnzkJe-58">
          <mxGeometry relative="1" as="geometry">
            <mxPoint x="510" y="1050" as="targetPoint" />
          </mxGeometry>
        </mxCell>
        <mxCell id="QjEfFsea5YLyxsfnzkJe-58" value="BrowseDeck" style="rounded=1;whiteSpace=wrap;html=1;arcSize=40;fontColor=#000000;fillColor=#ffffc0;strokeColor=#ff0000;" vertex="1" parent="1">
          <mxGeometry x="450" y="1050" width="120" height="40" as="geometry" />
        </mxCell>
        <mxCell id="QjEfFsea5YLyxsfnzkJe-59" value="" style="edgeStyle=orthogonalEdgeStyle;html=1;verticalAlign=bottom;endArrow=open;endSize=8;strokeColor=#ff0000;rounded=0;entryX=0.5;entryY=0.5;entryDx=0;entryDy=0;entryPerimeter=0;" edge="1" source="QjEfFsea5YLyxsfnzkJe-58" parent="1" target="QjEfFsea5YLyxsfnzkJe-60">
          <mxGeometry relative="1" as="geometry">
            <mxPoint x="510" y="1150" as="targetPoint" />
          </mxGeometry>
        </mxCell>
        <mxCell id="QjEfFsea5YLyxsfnzkJe-60" value="" style="shape=line;html=1;strokeWidth=6;strokeColor=#ff0000;" vertex="1" parent="1">
          <mxGeometry x="410" y="1150" width="200" height="10" as="geometry" />
        </mxCell>
        <mxCell id="QjEfFsea5YLyxsfnzkJe-61" value="" style="edgeStyle=orthogonalEdgeStyle;html=1;verticalAlign=bottom;endArrow=open;endSize=8;strokeColor=#ff0000;rounded=0;exitX=0.25;exitY=0.5;exitDx=0;exitDy=0;exitPerimeter=0;entryX=0.5;entryY=0;entryDx=0;entryDy=0;" edge="1" source="QjEfFsea5YLyxsfnzkJe-60" parent="1" target="QjEfFsea5YLyxsfnzkJe-62">
          <mxGeometry relative="1" as="geometry">
            <mxPoint x="460" y="1250" as="targetPoint" />
          </mxGeometry>
        </mxCell>
        <mxCell id="QjEfFsea5YLyxsfnzkJe-62" value="RateDeck" style="rounded=1;whiteSpace=wrap;html=1;arcSize=40;fontColor=#000000;fillColor=#ffffc0;strokeColor=#ff0000;" vertex="1" parent="1">
          <mxGeometry x="400" y="1260" width="120" height="40" as="geometry" />
        </mxCell>
        <mxCell id="QjEfFsea5YLyxsfnzkJe-64" value="View&amp;amp;SaveDeck" style="rounded=1;whiteSpace=wrap;html=1;arcSize=40;fontColor=#000000;fillColor=#ffffc0;strokeColor=#ff0000;" vertex="1" parent="1">
          <mxGeometry x="570" y="1260" width="120" height="40" as="geometry" />
        </mxCell>
        <mxCell id="QjEfFsea5YLyxsfnzkJe-65" value="" style="edgeStyle=orthogonalEdgeStyle;html=1;verticalAlign=bottom;endArrow=open;endSize=8;strokeColor=#ff0000;rounded=0;entryX=0.75;entryY=0.5;entryDx=0;entryDy=0;entryPerimeter=0;" edge="1" source="QjEfFsea5YLyxsfnzkJe-64" parent="1" target="QjEfFsea5YLyxsfnzkJe-68">
          <mxGeometry relative="1" as="geometry">
            <mxPoint x="630" y="1360" as="targetPoint" />
          </mxGeometry>
        </mxCell>
        <mxCell id="QjEfFsea5YLyxsfnzkJe-66" value="" style="edgeStyle=orthogonalEdgeStyle;html=1;verticalAlign=bottom;endArrow=open;endSize=8;strokeColor=#ff0000;rounded=0;exitX=0.75;exitY=0.5;exitDx=0;exitDy=0;exitPerimeter=0;entryX=0.5;entryY=0;entryDx=0;entryDy=0;" edge="1" parent="1" source="QjEfFsea5YLyxsfnzkJe-60" target="QjEfFsea5YLyxsfnzkJe-64">
          <mxGeometry relative="1" as="geometry">
            <mxPoint x="470" y="1270" as="targetPoint" />
            <mxPoint x="470" y="1165" as="sourcePoint" />
          </mxGeometry>
        </mxCell>
        <mxCell id="QjEfFsea5YLyxsfnzkJe-67" value="" style="edgeStyle=orthogonalEdgeStyle;html=1;verticalAlign=bottom;endArrow=open;endSize=8;strokeColor=#ff0000;rounded=0;exitX=0.5;exitY=1;exitDx=0;exitDy=0;entryX=0.25;entryY=0.5;entryDx=0;entryDy=0;entryPerimeter=0;" edge="1" parent="1" source="QjEfFsea5YLyxsfnzkJe-62" target="QjEfFsea5YLyxsfnzkJe-68">
          <mxGeometry relative="1" as="geometry">
            <mxPoint x="520" y="1350" as="targetPoint" />
            <mxPoint x="640" y="1310" as="sourcePoint" />
          </mxGeometry>
        </mxCell>
        <mxCell id="QjEfFsea5YLyxsfnzkJe-68" value="" style="shape=line;html=1;strokeWidth=6;strokeColor=#ff0000;" vertex="1" parent="1">
          <mxGeometry x="480" y="1380" width="200" height="10" as="geometry" />
        </mxCell>
        <mxCell id="QjEfFsea5YLyxsfnzkJe-69" value="" style="edgeStyle=orthogonalEdgeStyle;html=1;verticalAlign=bottom;endArrow=open;endSize=8;strokeColor=#ff0000;rounded=0;entryX=1;entryY=0.5;entryDx=0;entryDy=0;exitX=0.47;exitY=0.633;exitDx=0;exitDy=0;exitPerimeter=0;" edge="1" source="QjEfFsea5YLyxsfnzkJe-68" parent="1" target="QjEfFsea5YLyxsfnzkJe-55">
          <mxGeometry relative="1" as="geometry">
            <mxPoint x="770" y="1130" as="targetPoint" />
            <Array as="points">
              <mxPoint x="574" y="1420" />
              <mxPoint x="720" y="1420" />
              <mxPoint x="720" y="985" />
            </Array>
          </mxGeometry>
        </mxCell>
        <mxCell id="QjEfFsea5YLyxsfnzkJe-70" value="" style="shape=line;html=1;strokeWidth=6;strokeColor=#ff0000;" vertex="1" parent="1">
          <mxGeometry x="100" y="960" width="200" height="10" as="geometry" />
        </mxCell>
        <mxCell id="QjEfFsea5YLyxsfnzkJe-71" value="" style="edgeStyle=orthogonalEdgeStyle;html=1;verticalAlign=bottom;endArrow=open;endSize=8;strokeColor=#ff0000;rounded=0;exitX=0.25;exitY=0.5;exitDx=0;exitDy=0;exitPerimeter=0;entryX=0.5;entryY=0;entryDx=0;entryDy=0;" edge="1" source="QjEfFsea5YLyxsfnzkJe-70" parent="1" target="QjEfFsea5YLyxsfnzkJe-72">
          <mxGeometry relative="1" as="geometry">
            <mxPoint x="100" y="1040" as="targetPoint" />
          </mxGeometry>
        </mxCell>
        <mxCell id="QjEfFsea5YLyxsfnzkJe-72" value="CreateDeck" style="rounded=1;whiteSpace=wrap;html=1;arcSize=40;fontColor=#000000;fillColor=#ffffc0;strokeColor=#ff0000;" vertex="1" parent="1">
          <mxGeometry x="40" y="1050" width="120" height="40" as="geometry" />
        </mxCell>
        <mxCell id="QjEfFsea5YLyxsfnzkJe-73" value="" style="edgeStyle=orthogonalEdgeStyle;html=1;verticalAlign=bottom;endArrow=open;endSize=8;strokeColor=#ff0000;rounded=0;entryX=0.25;entryY=0.5;entryDx=0;entryDy=0;entryPerimeter=0;" edge="1" source="QjEfFsea5YLyxsfnzkJe-72" parent="1" target="QjEfFsea5YLyxsfnzkJe-77">
          <mxGeometry relative="1" as="geometry">
            <mxPoint x="100" y="1150" as="targetPoint" />
          </mxGeometry>
        </mxCell>
        <mxCell id="QjEfFsea5YLyxsfnzkJe-74" value="OpenDeck" style="rounded=1;whiteSpace=wrap;html=1;arcSize=40;fontColor=#000000;fillColor=#ffffc0;strokeColor=#ff0000;" vertex="1" parent="1">
          <mxGeometry x="250" y="1050" width="120" height="40" as="geometry" />
        </mxCell>
        <mxCell id="QjEfFsea5YLyxsfnzkJe-75" value="" style="edgeStyle=orthogonalEdgeStyle;html=1;verticalAlign=bottom;endArrow=open;endSize=8;strokeColor=#ff0000;rounded=0;entryX=0.75;entryY=0.5;entryDx=0;entryDy=0;entryPerimeter=0;" edge="1" source="QjEfFsea5YLyxsfnzkJe-74" parent="1" target="QjEfFsea5YLyxsfnzkJe-77">
          <mxGeometry relative="1" as="geometry">
            <mxPoint x="260" y="1150" as="targetPoint" />
          </mxGeometry>
        </mxCell>
        <mxCell id="QjEfFsea5YLyxsfnzkJe-76" value="" style="edgeStyle=orthogonalEdgeStyle;html=1;verticalAlign=bottom;endArrow=open;endSize=8;strokeColor=#ff0000;rounded=0;exitX=0.75;exitY=0.5;exitDx=0;exitDy=0;exitPerimeter=0;entryX=0.5;entryY=0;entryDx=0;entryDy=0;" edge="1" parent="1" source="QjEfFsea5YLyxsfnzkJe-70" target="QjEfFsea5YLyxsfnzkJe-74">
          <mxGeometry relative="1" as="geometry">
            <mxPoint x="110" y="1060" as="targetPoint" />
            <mxPoint x="160" y="975" as="sourcePoint" />
          </mxGeometry>
        </mxCell>
        <mxCell id="QjEfFsea5YLyxsfnzkJe-77" value="" style="shape=line;html=1;strokeWidth=6;strokeColor=#ff0000;" vertex="1" parent="1">
          <mxGeometry x="80" y="1160" width="200" height="10" as="geometry" />
        </mxCell>
        <mxCell id="QjEfFsea5YLyxsfnzkJe-78" value="" style="edgeStyle=orthogonalEdgeStyle;html=1;verticalAlign=bottom;endArrow=open;endSize=8;strokeColor=#ff0000;rounded=0;exitX=0.5;exitY=0.567;exitDx=0;exitDy=0;exitPerimeter=0;entryX=0.5;entryY=0;entryDx=0;entryDy=0;" edge="1" source="QjEfFsea5YLyxsfnzkJe-77" parent="1" target="QjEfFsea5YLyxsfnzkJe-53">
          <mxGeometry relative="1" as="geometry">
            <mxPoint x="180" y="1240" as="targetPoint" />
          </mxGeometry>
        </mxCell>
        <mxCell id="QjEfFsea5YLyxsfnzkJe-79" value="EditDeck" style="rounded=1;whiteSpace=wrap;html=1;arcSize=40;fontColor=#000000;fillColor=#ffffc0;strokeColor=#ff0000;" vertex="1" parent="1">
          <mxGeometry x="120" y="1320" width="120" height="40" as="geometry" />
        </mxCell>
        <mxCell id="QjEfFsea5YLyxsfnzkJe-80" value="" style="edgeStyle=orthogonalEdgeStyle;html=1;verticalAlign=bottom;endArrow=open;endSize=8;strokeColor=#ff0000;rounded=0;entryX=0.5;entryY=0;entryDx=0;entryDy=0;" edge="1" source="QjEfFsea5YLyxsfnzkJe-79" parent="1" target="QjEfFsea5YLyxsfnzkJe-82">
          <mxGeometry relative="1" as="geometry">
            <mxPoint x="180" y="1420" as="targetPoint" />
          </mxGeometry>
        </mxCell>
        <mxCell id="QjEfFsea5YLyxsfnzkJe-81" value="" style="edgeStyle=orthogonalEdgeStyle;html=1;verticalAlign=bottom;endArrow=open;endSize=8;strokeColor=#ff0000;rounded=0;exitX=0.5;exitY=1;exitDx=0;exitDy=0;entryX=0.5;entryY=0;entryDx=0;entryDy=0;" edge="1" parent="1" source="QjEfFsea5YLyxsfnzkJe-53" target="QjEfFsea5YLyxsfnzkJe-79">
          <mxGeometry relative="1" as="geometry">
            <mxPoint x="190" y="1430" as="targetPoint" />
            <mxPoint x="190" y="1370" as="sourcePoint" />
          </mxGeometry>
        </mxCell>
        <mxCell id="QjEfFsea5YLyxsfnzkJe-82" value="SaveDeck" style="rounded=1;whiteSpace=wrap;html=1;arcSize=40;fontColor=#000000;fillColor=#ffffc0;strokeColor=#ff0000;" vertex="1" parent="1">
          <mxGeometry x="120" y="1440" width="120" height="40" as="geometry" />
        </mxCell>
        <mxCell id="QjEfFsea5YLyxsfnzkJe-83" value="" style="edgeStyle=orthogonalEdgeStyle;html=1;verticalAlign=bottom;endArrow=open;endSize=8;strokeColor=#ff0000;rounded=0;entryX=0;entryY=0.5;entryDx=0;entryDy=0;" edge="1" source="QjEfFsea5YLyxsfnzkJe-82" parent="1" target="QjEfFsea5YLyxsfnzkJe-10">
          <mxGeometry relative="1" as="geometry">
            <mxPoint x="90" y="880" as="targetPoint" />
            <Array as="points">
              <mxPoint x="-10" y="1460" />
              <mxPoint x="-10" y="900" />
              <mxPoint x="150" y="900" />
              <mxPoint x="150" y="760" />
            </Array>
          </mxGeometry>
        </mxCell>
        <mxCell id="QjEfFsea5YLyxsfnzkJe-84" value="" style="edgeStyle=orthogonalEdgeStyle;html=1;verticalAlign=bottom;endArrow=open;endSize=8;strokeColor=#ff0000;rounded=0;exitX=0.503;exitY=0.433;exitDx=0;exitDy=0;exitPerimeter=0;entryX=0.25;entryY=0.5;entryDx=0;entryDy=0;entryPerimeter=0;" edge="1" parent="1" source="QjEfFsea5YLyxsfnzkJe-49" target="QjEfFsea5YLyxsfnzkJe-86">
          <mxGeometry relative="1" as="geometry">
            <mxPoint x="-220" y="480" as="targetPoint" />
            <mxPoint x="390" y="790" as="sourcePoint" />
          </mxGeometry>
        </mxCell>
        <mxCell id="QjEfFsea5YLyxsfnzkJe-85" value="" style="edgeStyle=orthogonalEdgeStyle;html=1;verticalAlign=bottom;endArrow=open;endSize=8;strokeColor=#ff0000;rounded=0;exitX=0;exitY=0.5;exitDx=0;exitDy=0;entryX=0.75;entryY=0.5;entryDx=0;entryDy=0;entryPerimeter=0;" edge="1" parent="1" source="QjEfFsea5YLyxsfnzkJe-37" target="QjEfFsea5YLyxsfnzkJe-86">
          <mxGeometry relative="1" as="geometry">
            <mxPoint x="-150" y="480" as="targetPoint" />
            <mxPoint x="-130" y="760" as="sourcePoint" />
          </mxGeometry>
        </mxCell>
        <mxCell id="QjEfFsea5YLyxsfnzkJe-86" value="" style="shape=line;html=1;strokeWidth=6;strokeColor=#ff0000;" vertex="1" parent="1">
          <mxGeometry x="-250" y="440" width="200" height="10" as="geometry" />
        </mxCell>
        <mxCell id="QjEfFsea5YLyxsfnzkJe-87" value="" style="edgeStyle=orthogonalEdgeStyle;html=1;verticalAlign=bottom;endArrow=open;endSize=8;strokeColor=#ff0000;rounded=0;entryX=0;entryY=0.5;entryDx=0;entryDy=0;" edge="1" source="QjEfFsea5YLyxsfnzkJe-86" parent="1" target="QjEfFsea5YLyxsfnzkJe-6">
          <mxGeometry relative="1" as="geometry">
            <mxPoint x="-150" y="520" as="targetPoint" />
            <Array as="points">
              <mxPoint x="-150" y="290" />
            </Array>
          </mxGeometry>
        </mxCell>
      </root>
    </mxGraphModel>
  </diagram>
</mxfile>
